# xmcd
#
# Track frame offsets:
#	150
#	8812
#	20858
#	36857
#	49598
#	64249
#	83095
#	95333
#	106266
#	123854
#	138766
#
# Disc length: 2020 seconds
#
# Revision: 1
# Processed by: cddbd v1.5.1PL2 Copyright (c) Steve Scherf et al.
# Submitted via: audiograbber 1.83.01
#
DISCID=8507e20b
DTITLE=Cheerful Diligence - Cheerful Diligence
DYEAR=1900
DGENRE=Bluegrass
TTITLE0=That don`t bother me
TTITLE1=Love someone like me
TTITLE2=Korobushka
TTITLE3=Forgive and forget
TTITLE4=Who knows what tomorrow may bring
TTITLE5=Luxury liner
TTITLE6=Long journey home
TTITLE7=Hot wired
TTITLE8=Mother, I` am so lonely
TTITLE9=Blue
TTITLE10=Bonus track
EXTD=
EXTT0=
EXTT1=
EXTT2=
EXTT3=
EXTT4=
EXTT5=
EXTT6=
EXTT7=
EXTT8=
EXTT9=
EXTT10=
PLAYORDER=
